<?xml version="1.0" encoding="UTF-8" standalone="no"?>
<!-- Created with Inkscape (http://www.inkscape.org/) -->

<svg
   xmlns:dc="http://purl.org/dc/elements/1.1/"
   xmlns:cc="http://creativecommons.org/ns#"
   xmlns:rdf="http://www.w3.org/1999/02/22-rdf-syntax-ns#"
   xmlns:svg="http://www.w3.org/2000/svg"
   xmlns="http://www.w3.org/2000/svg"
   xmlns:sodipodi="http://sodipodi.sourceforge.net/DTD/sodipodi-0.dtd"
   xmlns:inkscape="http://www.inkscape.org/namespaces/inkscape"
   width="210mm"
   height="297mm"
   viewBox="0 0 210 297"
   version="1.1"
   id="svg8"
   sodipodi:docname="dibujo.svg"
   inkscape:version="0.92.4 (5da689c313, 2019-01-14)">
  <defs
     id="defs2" />
  <sodipodi:namedview
     id="base"
     pagecolor="#ffffff"
     bordercolor="#666666"
     borderopacity="1.0"
     inkscape:pageopacity="0.0"
     inkscape:pageshadow="2"
     inkscape:zoom="0.35"
     inkscape:cx="1527.7151"
     inkscape:cy="229.4277"
     inkscape:document-units="mm"
     inkscape:current-layer="g3724"
     showgrid="false"
     inkscape:window-width="2560"
     inkscape:window-height="1377"
     inkscape:window-x="-8"
     inkscape:window-y="-8"
     inkscape:window-maximized="1" />
  <metadata
     id="metadata5">
    <rdf:RDF>
      <cc:Work
         rdf:about="">
        <dc:format>image/svg+xml</dc:format>
        <dc:type
           rdf:resource="http://purl.org/dc/dcmitype/StillImage" />
        <dc:title></dc:title>
      </cc:Work>
    </rdf:RDF>
  </metadata>
  <g
     inkscape:label="Capa1"
     inkscape:groupmode="layer"
     id="layer1">
    <g
       id="g3724"
       transform="translate(12.37872,74.555803)">
      <path
         style="fill:#000000;fill-opacity:0.96482412;stroke:#003500;stroke-width:0.05;stroke-miterlimit:4;stroke-dasharray:none;stroke-opacity:1"
         d="m 4.567044,222.39316 c 0.16593,-0.0227 0.16862,-0.026 0.0501,-0.0618 -0.11584,-0.0349 -0.11263,-0.0381 0.0427,-0.0427 0.26193,-0.008 1.02365,-0.28097 1.37112,-0.49182 0.17303,-0.10499 1.49821,-1.05383 2.94484,-2.10853 1.44662,-1.0547 5.256693,-3.83111 8.466821,-6.1698 3.210129,-2.33869 6.197314,-4.51651 6.63819,-4.83959 0.440876,-0.32309 0.843403,-0.588 0.894504,-0.58869 0.05156,-6.9e-4 0.430612,0.31318 0.851692,0.70524 2.134459,1.98738 5.792208,5.40344 7.561937,7.06229 2.688608,2.52015 2.828343,2.61272 3.943197,2.61244 0.842109,0 1.303001,-0.13802 1.860367,-0.55627 0.517725,-0.38851 0.746494,-0.81781 1.241155,-2.32914 0.197248,-0.60266 0.807191,-2.4405 1.355428,-4.0841 1.253777,-3.75879 5.195854,-15.60347 5.43726,-16.33723 0.09929,-0.30181 0.196375,-0.57399 0.21574,-0.60484 0.01936,-0.0309 0.700279,-0.26176 1.513144,-0.51312 0.812865,-0.25136 2.988438,-0.92494 4.834606,-1.49685 1.846168,-0.57192 5.351884,-1.65637 7.790479,-2.40991 2.438595,-0.75353 4.572568,-1.43963 4.742161,-1.52467 0.368178,-0.1846 0.801794,-0.61782 0.992104,-0.99117 0.07412,-0.14541 0.176947,-0.42436 0.228511,-0.61989 0.05156,-0.19553 0.0973,-0.31069 0.101639,-0.2559 0.0047,0.0599 0.02547,0.0302 0.05203,-0.0747 0.02428,-0.0959 0.02889,-0.29759 0.01025,-0.44826 -0.03018,-0.2439 -0.03768,-0.25755 -0.0684,-0.12451 l -0.0345,0.14942 -0.0059,-0.16345 c -0.0081,-0.22442 -0.182958,-0.72314 -0.340399,-0.97109 -0.176797,-0.27842 -0.546178,-0.62484 -0.87317,-0.81888 -0.148662,-0.0882 -0.777553,-0.34999 -1.397535,-0.58172 -1.063865,-0.39763 -6.420224,-2.38933 -11.0219,-4.09836 -1.143522,-0.4247 -3.093647,-1.14903 -4.33361,-1.60963 -1.239964,-0.4606 -3.742436,-1.3899 -5.56105,-2.06512 -1.818613,-0.67521 -4.354903,-1.6169 -5.636198,-2.09266 -5.007891,-1.85946 -8.519838,-3.16254 -11.923692,-4.42419 -0.702646,-0.26044 -1.953882,-0.72426 -2.780525,-1.03072 -0.826642,-0.30645 -2.280781,-0.84463 -3.23142,-1.19594 -0.950639,-0.35131 -2.675316,-0.98967 -3.832615,-1.41857 -2.331248,-0.86398 -6.138521,-2.27241 -7.339591,-2.71516 -0.4271,-0.15744 -3.00848,-1.10938 -5.7364,-2.11543 -6.710783,-2.47492 -12.124503,-4.44879 -13.025873,-4.7493 -0.16533,-0.0551 -0.26678,-0.10249 -0.22545,-0.10528 0.0612,-0.004 0.0594,-0.0142 -0.01,-0.0544 -0.0473,-0.0274 -0.17987,-0.0342 -0.29878,-0.0153 -0.16912,0.0269 -0.1932,0.042 -0.11536,0.0722 0.0876,0.034 0.0846,0.0387 -0.0269,0.0429 -0.46395,0.0173 -1.4056,0.65743 -1.80464,1.2267 -0.17008,0.24264 -0.34706,0.74087 -0.35623,1.00287 l -0.007,0.18834 -0.0369,-0.17432 c -0.0273,-0.12898 -0.0368,-0.0707 -0.0367,0.22413 0,0.21914 0.0113,0.34241 0.0248,0.27393 0.0152,-0.0774 0.0776,0.13919 0.16488,0.57277 0.0772,0.3835 1.78893,8.50811 3.80385,18.05467 2.01492,9.54657 4.01083,19.00473 4.43536,21.01814 0.42453,2.01341 1.584576,7.51573 2.577906,12.22737 0.99332002,4.71165 1.86299002,8.76638 1.93261002,9.01051 0.365317,1.28116 1.18533698,2.12319 2.35810698,2.42137 0.21245,0.054 0.46722,0.10087 0.56615,0.10411 l 0.17985,0.006 -0.1503,0.0337 c -0.30712,0.069 0.58472,0.12448 1.02705,0.0639 z M 37.41547,211.13959 c -0.03234,-0.053 -0.127205,-0.99758 -0.684018,-6.81096 -0.461785,-4.82125 -0.45083,-4.72414 -0.542735,-4.81075 -0.04621,-0.0435 -0.54618,-0.4925 -1.111052,-0.99769 -0.564872,-0.50519 -1.950621,-1.74709 -3.079442,-2.75978 -1.12882,-1.01269 -2.752046,-2.46821 -3.607167,-3.2345 -0.855121,-0.76629 -2.276199,-2.0415 -3.157951,-2.83379 -0.881752,-0.79229 -2.020265,-1.815 -2.530027,-2.27268 -1.647434,-1.47912 -9.963994,-8.95776 -10.996854,-9.88889 -0.55109,-0.49681 -1.12599,-1.01482 -1.27754,-1.15114 -3.31056,-2.9777 -8.20922,-7.43521 -8.41257,-7.65497 -0.16329,-0.17647 -0.19737,-0.58257 -0.0695,-0.82891 0.1741,-0.33555 0.87627,-0.54906 1.2217,-0.37149 0.50028,0.25719 10.71875,6.69441 20.9877,13.22139 0.978194,0.62175 3.007226,1.91078 4.508959,2.86452 1.501734,0.95374 3.542038,2.24997 4.534009,2.88051 0.991971,0.63053 2.074121,1.31815 2.404778,1.52803 0.330657,0.20988 1.491714,0.94807 2.580127,1.64042 1.088412,0.69235 2.651985,1.68624 3.474605,2.20865 0.82262,0.5224 1.508026,0.98183 1.523124,1.02094 0.02842,0.0736 -0.007,0.19417 -1.190011,4.04393 -0.391412,1.27379 -0.842475,2.74182 -1.002362,3.26229 -0.159886,0.52048 -0.573192,1.86524 -0.918457,2.98836 -0.345264,1.12313 -1.023479,3.33079 -1.507143,4.90589 -0.483664,1.57512 -0.901757,2.91428 -0.929096,2.97591 -0.04813,0.1085 -0.172526,0.15094 -0.219027,0.0747 z"
         id="path3726"
         inkscape:connector-curvature="0" />
    </g>
  </g>
</svg>
